<mxfile host="app.diagrams.net" modified="2021-08-08T20:39:21.604Z" agent="5.0 (Macintosh; Intel Mac OS X 10_13_6) AppleWebKit/605.1.15 (KHTML, like Gecko) Version/13.1.2 Safari/605.1.15" etag="g37WocsLWJySWAUgjLgT" version="14.7.7" type="github">
  <diagram id="2GaZMPoda5FYiezDQa5v" name="Page-1">
    <mxGraphModel dx="1368" dy="930" grid="1" gridSize="10" guides="1" tooltips="1" connect="1" arrows="1" fold="1" page="1" pageScale="1" pageWidth="827" pageHeight="1169" math="0" shadow="0">
      <root>
        <mxCell id="0" />
        <mxCell id="1" parent="0" />
        <mxCell id="vHl5KV8DhaPgDsP6Y2P2-5" style="edgeStyle=orthogonalEdgeStyle;rounded=0;orthogonalLoop=1;jettySize=auto;html=1;exitX=0.5;exitY=1;exitDx=0;exitDy=0;exitPerimeter=0;" edge="1" parent="1" source="vHl5KV8DhaPgDsP6Y2P2-27" target="vHl5KV8DhaPgDsP6Y2P2-4">
          <mxGeometry relative="1" as="geometry">
            <mxPoint x="390" y="170" as="sourcePoint" />
          </mxGeometry>
        </mxCell>
        <mxCell id="vHl5KV8DhaPgDsP6Y2P2-2" value="470 unique malzeme sınıfı" style="text;html=1;align=center;verticalAlign=middle;resizable=0;points=[];autosize=1;strokeColor=none;" vertex="1" parent="1">
          <mxGeometry x="60" y="60" width="150" height="20" as="geometry" />
        </mxCell>
        <mxCell id="vHl5KV8DhaPgDsP6Y2P2-3" value="&lt;div&gt;PlastikParca,&amp;nbsp;&lt;/div&gt;&lt;div&gt;&lt;span style=&quot;font-size: 12px&quot;&gt;Panel,&amp;nbsp;&lt;/span&gt;&lt;/div&gt;&lt;div&gt;&lt;span style=&quot;font-size: 12px&quot;&gt;Kompresor,&amp;nbsp;&lt;/span&gt;&lt;/div&gt;&lt;div&gt;&lt;span style=&quot;font-size: 12px&quot;&gt;OnCerceve,&lt;/span&gt;&lt;/div&gt;&lt;div&gt;&amp;nbsp; KontrolKutusuGrubu&lt;/div&gt;" style="text;html=1;align=center;verticalAlign=middle;resizable=0;points=[];autosize=1;strokeColor=none;" vertex="1" parent="1">
          <mxGeometry x="470" y="95" width="130" height="70" as="geometry" />
        </mxCell>
        <mxCell id="vHl5KV8DhaPgDsP6Y2P2-8" style="edgeStyle=orthogonalEdgeStyle;rounded=0;orthogonalLoop=1;jettySize=auto;html=1;exitX=0.25;exitY=1;exitDx=0;exitDy=0;entryX=1;entryY=0;entryDx=0;entryDy=0;" edge="1" parent="1" source="vHl5KV8DhaPgDsP6Y2P2-4" target="vHl5KV8DhaPgDsP6Y2P2-6">
          <mxGeometry relative="1" as="geometry" />
        </mxCell>
        <mxCell id="vHl5KV8DhaPgDsP6Y2P2-9" style="edgeStyle=orthogonalEdgeStyle;rounded=0;orthogonalLoop=1;jettySize=auto;html=1;exitX=0.75;exitY=1;exitDx=0;exitDy=0;entryX=0.25;entryY=0.125;entryDx=0;entryDy=0;entryPerimeter=0;" edge="1" parent="1" source="vHl5KV8DhaPgDsP6Y2P2-4" target="vHl5KV8DhaPgDsP6Y2P2-7">
          <mxGeometry relative="1" as="geometry" />
        </mxCell>
        <mxCell id="vHl5KV8DhaPgDsP6Y2P2-4" value="Preprocessing" style="rounded=1;whiteSpace=wrap;html=1;" vertex="1" parent="1">
          <mxGeometry x="330" y="250" width="120" height="60" as="geometry" />
        </mxCell>
        <mxCell id="vHl5KV8DhaPgDsP6Y2P2-13" style="edgeStyle=orthogonalEdgeStyle;rounded=0;orthogonalLoop=1;jettySize=auto;html=1;exitX=0.5;exitY=1;exitDx=0;exitDy=0;" edge="1" parent="1" source="vHl5KV8DhaPgDsP6Y2P2-6" target="vHl5KV8DhaPgDsP6Y2P2-12">
          <mxGeometry relative="1" as="geometry" />
        </mxCell>
        <mxCell id="vHl5KV8DhaPgDsP6Y2P2-6" value="Sınıf Bazlı &lt;br&gt;Veriler" style="ellipse;whiteSpace=wrap;html=1;" vertex="1" parent="1">
          <mxGeometry x="180" y="350" width="120" height="80" as="geometry" />
        </mxCell>
        <mxCell id="vHl5KV8DhaPgDsP6Y2P2-7" value="Malzeme Bazlı &lt;br&gt;Veriler" style="ellipse;whiteSpace=wrap;html=1;" vertex="1" parent="1">
          <mxGeometry x="470" y="350" width="120" height="80" as="geometry" />
        </mxCell>
        <mxCell id="vHl5KV8DhaPgDsP6Y2P2-10" value="Outlier Handling &lt;br&gt;+ &lt;br&gt;İnput Representation" style="text;html=1;align=center;verticalAlign=middle;resizable=0;points=[];autosize=1;strokeColor=none;" vertex="1" parent="1">
          <mxGeometry x="480" y="260" width="120" height="40" as="geometry" />
        </mxCell>
        <mxCell id="vHl5KV8DhaPgDsP6Y2P2-16" style="edgeStyle=orthogonalEdgeStyle;rounded=0;orthogonalLoop=1;jettySize=auto;html=1;exitX=0.5;exitY=1;exitDx=0;exitDy=0;entryX=0.5;entryY=0;entryDx=0;entryDy=0;" edge="1" parent="1" source="vHl5KV8DhaPgDsP6Y2P2-12" target="vHl5KV8DhaPgDsP6Y2P2-15">
          <mxGeometry relative="1" as="geometry" />
        </mxCell>
        <mxCell id="vHl5KV8DhaPgDsP6Y2P2-12" value="AutoArima ile sınıf bazlı en başarılı forecasting modellerinin tespiti" style="rounded=1;whiteSpace=wrap;html=1;" vertex="1" parent="1">
          <mxGeometry x="165" y="490" width="150" height="80" as="geometry" />
        </mxCell>
        <mxCell id="vHl5KV8DhaPgDsP6Y2P2-14" style="edgeStyle=orthogonalEdgeStyle;rounded=0;orthogonalLoop=1;jettySize=auto;html=1;exitX=0.5;exitY=1;exitDx=0;exitDy=0;" edge="1" parent="1" source="vHl5KV8DhaPgDsP6Y2P2-12" target="vHl5KV8DhaPgDsP6Y2P2-12">
          <mxGeometry relative="1" as="geometry" />
        </mxCell>
        <mxCell id="vHl5KV8DhaPgDsP6Y2P2-17" style="edgeStyle=orthogonalEdgeStyle;rounded=0;orthogonalLoop=1;jettySize=auto;html=1;exitX=1;exitY=0.5;exitDx=0;exitDy=0;entryX=0;entryY=0.5;entryDx=0;entryDy=0;" edge="1" parent="1" source="vHl5KV8DhaPgDsP6Y2P2-15" target="vHl5KV8DhaPgDsP6Y2P2-19">
          <mxGeometry relative="1" as="geometry">
            <mxPoint x="420" y="640" as="targetPoint" />
          </mxGeometry>
        </mxCell>
        <mxCell id="vHl5KV8DhaPgDsP6Y2P2-18" value="MAPE &amp;lt; 1" style="edgeLabel;html=1;align=center;verticalAlign=middle;resizable=0;points=[];" vertex="1" connectable="0" parent="vHl5KV8DhaPgDsP6Y2P2-17">
          <mxGeometry x="-0.1714" relative="1" as="geometry">
            <mxPoint as="offset" />
          </mxGeometry>
        </mxCell>
        <mxCell id="vHl5KV8DhaPgDsP6Y2P2-21" style="edgeStyle=orthogonalEdgeStyle;rounded=0;orthogonalLoop=1;jettySize=auto;html=1;exitX=0.5;exitY=1;exitDx=0;exitDy=0;entryX=0;entryY=0.5;entryDx=0;entryDy=0;" edge="1" parent="1" source="vHl5KV8DhaPgDsP6Y2P2-15" target="vHl5KV8DhaPgDsP6Y2P2-23">
          <mxGeometry relative="1" as="geometry">
            <mxPoint x="240" y="770" as="targetPoint" />
          </mxGeometry>
        </mxCell>
        <mxCell id="vHl5KV8DhaPgDsP6Y2P2-22" value="MAPE &amp;gt;=1" style="edgeLabel;html=1;align=center;verticalAlign=middle;resizable=0;points=[];" vertex="1" connectable="0" parent="vHl5KV8DhaPgDsP6Y2P2-21">
          <mxGeometry x="-0.1555" y="-4" relative="1" as="geometry">
            <mxPoint x="86" y="-4" as="offset" />
          </mxGeometry>
        </mxCell>
        <mxCell id="vHl5KV8DhaPgDsP6Y2P2-15" value="Evaluation" style="rhombus;whiteSpace=wrap;html=1;" vertex="1" parent="1">
          <mxGeometry x="200" y="600" width="80" height="80" as="geometry" />
        </mxCell>
        <mxCell id="vHl5KV8DhaPgDsP6Y2P2-30" style="edgeStyle=orthogonalEdgeStyle;rounded=0;orthogonalLoop=1;jettySize=auto;html=1;exitX=1;exitY=0.5;exitDx=0;exitDy=0;entryX=0;entryY=0.5;entryDx=0;entryDy=0;entryPerimeter=0;" edge="1" parent="1" source="vHl5KV8DhaPgDsP6Y2P2-19" target="vHl5KV8DhaPgDsP6Y2P2-29">
          <mxGeometry relative="1" as="geometry" />
        </mxCell>
        <mxCell id="vHl5KV8DhaPgDsP6Y2P2-19" value="Sınıfa ait olan tüm malzemelerin forecast&#39;i bu model ile gerçekleştirilir" style="ellipse;whiteSpace=wrap;html=1;" vertex="1" parent="1">
          <mxGeometry x="455" y="585" width="150" height="110" as="geometry" />
        </mxCell>
        <mxCell id="vHl5KV8DhaPgDsP6Y2P2-20" value="" style="endArrow=none;dashed=1;html=1;dashPattern=1 3;strokeWidth=2;entryX=1;entryY=0.5;entryDx=0;entryDy=0;exitX=1;exitY=0.5;exitDx=0;exitDy=0;" edge="1" parent="1" source="vHl5KV8DhaPgDsP6Y2P2-19" target="vHl5KV8DhaPgDsP6Y2P2-7">
          <mxGeometry width="50" height="50" relative="1" as="geometry">
            <mxPoint x="620" y="790" as="sourcePoint" />
            <mxPoint x="440" y="450" as="targetPoint" />
            <Array as="points">
              <mxPoint x="620" y="640" />
              <mxPoint x="620" y="390" />
            </Array>
          </mxGeometry>
        </mxCell>
        <mxCell id="vHl5KV8DhaPgDsP6Y2P2-31" style="edgeStyle=orthogonalEdgeStyle;rounded=0;orthogonalLoop=1;jettySize=auto;html=1;exitX=1;exitY=0.5;exitDx=0;exitDy=0;entryX=0;entryY=0.5;entryDx=0;entryDy=0;entryPerimeter=0;" edge="1" parent="1" source="vHl5KV8DhaPgDsP6Y2P2-23" target="vHl5KV8DhaPgDsP6Y2P2-29">
          <mxGeometry relative="1" as="geometry" />
        </mxCell>
        <mxCell id="vHl5KV8DhaPgDsP6Y2P2-23" value="Her malzeme için AutoArima modelini tespit et ve tahminle." style="ellipse;whiteSpace=wrap;html=1;" vertex="1" parent="1">
          <mxGeometry x="455" y="740" width="150" height="110" as="geometry" />
        </mxCell>
        <mxCell id="vHl5KV8DhaPgDsP6Y2P2-26" value="" style="endArrow=none;dashed=1;html=1;dashPattern=1 3;strokeWidth=2;entryX=1;entryY=0.5;entryDx=0;entryDy=0;exitX=1;exitY=0.5;exitDx=0;exitDy=0;" edge="1" parent="1" source="vHl5KV8DhaPgDsP6Y2P2-23">
          <mxGeometry width="50" height="50" relative="1" as="geometry">
            <mxPoint x="605" y="640" as="sourcePoint" />
            <mxPoint x="590" y="390" as="targetPoint" />
            <Array as="points">
              <mxPoint x="620" y="795" />
              <mxPoint x="620" y="390" />
            </Array>
          </mxGeometry>
        </mxCell>
        <mxCell id="vHl5KV8DhaPgDsP6Y2P2-27" value="&lt;span&gt;Sınıf bazında malzeme verileri&lt;/span&gt;" style="shape=cylinder3;whiteSpace=wrap;html=1;boundedLbl=1;backgroundOutline=1;size=15;fillColor=#dae8fc;strokeColor=#6c8ebf;" vertex="1" parent="1">
          <mxGeometry x="335" y="80" width="110" height="85" as="geometry" />
        </mxCell>
        <mxCell id="vHl5KV8DhaPgDsP6Y2P2-29" value="&lt;span&gt;Sınıf bazlı sonuçları birleştir&lt;/span&gt;" style="shape=cylinder3;whiteSpace=wrap;html=1;boundedLbl=1;backgroundOutline=1;size=15;fillColor=#dae8fc;strokeColor=#6c8ebf;" vertex="1" parent="1">
          <mxGeometry x="760" y="670" width="110" height="85" as="geometry" />
        </mxCell>
      </root>
    </mxGraphModel>
  </diagram>
</mxfile>
